<mxfile host="app.diagrams.net" modified="2020-12-21T14:13:46.807Z" agent="5.0 (Windows NT 10.0; Win64; x64) AppleWebKit/537.36 (KHTML, like Gecko) Chrome/87.0.4280.88 Safari/537.36" etag="Dc0Elvz8cQ2iMzSIAB6M" version="14.0.1" type="github">
  <diagram id="SyewAk2P0qxDuI1s7rcY" name="Page-1">
    <mxGraphModel dx="1422" dy="794" grid="1" gridSize="10" guides="1" tooltips="1" connect="1" arrows="1" fold="1" page="1" pageScale="1" pageWidth="827" pageHeight="1169" math="0" shadow="0">
      <root>
        <mxCell id="0" />
        <mxCell id="1" parent="0" />
        <mxCell id="oi2uAlu7gPfmuYFmOc-m-2" value="Coll@HBRS" style="shape=umlFrame;whiteSpace=wrap;html=1;width=80;height=35;" vertex="1" parent="1">
          <mxGeometry x="140" y="225" width="530" height="360" as="geometry" />
        </mxCell>
        <mxCell id="oi2uAlu7gPfmuYFmOc-m-3" value="Unternehmer" style="shape=umlActor;verticalLabelPosition=bottom;verticalAlign=top;html=1;" vertex="1" parent="1">
          <mxGeometry x="30" y="400" width="30" height="60" as="geometry" />
        </mxCell>
        <mxCell id="oi2uAlu7gPfmuYFmOc-m-4" value="Bankdaten ermitteln" style="ellipse;whiteSpace=wrap;html=1;" vertex="1" parent="1">
          <mxGeometry x="150" y="520" width="110" height="50" as="geometry" />
        </mxCell>
        <mxCell id="oi2uAlu7gPfmuYFmOc-m-5" value="&lt;b&gt;Extension Points&lt;/b&gt;&lt;br&gt;EP: KeineKorrektheit" style="ellipse;whiteSpace=wrap;html=1;" vertex="1" parent="1">
          <mxGeometry x="170" y="390" width="140" height="70" as="geometry" />
        </mxCell>
        <mxCell id="oi2uAlu7gPfmuYFmOc-m-6" value="" style="endArrow=none;html=1;exitX=0;exitY=0;exitDx=0;exitDy=0;entryX=1;entryY=0;entryDx=0;entryDy=0;" edge="1" parent="1" source="oi2uAlu7gPfmuYFmOc-m-5" target="oi2uAlu7gPfmuYFmOc-m-5">
          <mxGeometry width="50" height="50" relative="1" as="geometry">
            <mxPoint x="210" y="370" as="sourcePoint" />
            <mxPoint x="260" y="320" as="targetPoint" />
          </mxGeometry>
        </mxCell>
        <mxCell id="oi2uAlu7gPfmuYFmOc-m-7" value="&lt;b&gt;Jobangebot&lt;br&gt;erstellen&lt;/b&gt;" style="text;html=1;strokeColor=none;fillColor=none;align=center;verticalAlign=middle;whiteSpace=wrap;rounded=0;" vertex="1" parent="1">
          <mxGeometry x="230" y="470" width="40" height="20" as="geometry" />
        </mxCell>
        <mxCell id="oi2uAlu7gPfmuYFmOc-m-8" value="&amp;lt;&amp;lt;include&amp;gt;&amp;gt;" style="html=1;verticalAlign=bottom;endArrow=open;dashed=1;endSize=8;exitX=0;exitY=1;exitDx=0;exitDy=0;entryX=0;entryY=0;entryDx=0;entryDy=0;" edge="1" parent="1" source="oi2uAlu7gPfmuYFmOc-m-5" target="oi2uAlu7gPfmuYFmOc-m-4">
          <mxGeometry relative="1" as="geometry">
            <mxPoint x="220" y="500" as="sourcePoint" />
            <mxPoint x="140" y="500" as="targetPoint" />
          </mxGeometry>
        </mxCell>
        <mxCell id="oi2uAlu7gPfmuYFmOc-m-9" value="Bankeinzug&lt;br&gt;durchfÃ¼hren" style="ellipse;whiteSpace=wrap;html=1;" vertex="1" parent="1">
          <mxGeometry x="335" y="250" width="85" height="50" as="geometry" />
        </mxCell>
        <mxCell id="oi2uAlu7gPfmuYFmOc-m-10" value="&amp;lt;&amp;lt;include&amp;gt;&amp;gt;" style="html=1;verticalAlign=bottom;endArrow=open;dashed=1;endSize=8;entryX=0;entryY=1;entryDx=0;entryDy=0;exitX=0.5;exitY=0;exitDx=0;exitDy=0;" edge="1" parent="1" source="oi2uAlu7gPfmuYFmOc-m-5" target="oi2uAlu7gPfmuYFmOc-m-9">
          <mxGeometry relative="1" as="geometry">
            <mxPoint x="370" y="360" as="sourcePoint" />
            <mxPoint x="290" y="360" as="targetPoint" />
          </mxGeometry>
        </mxCell>
        <mxCell id="oi2uAlu7gPfmuYFmOc-m-11" value="" style="whiteSpace=wrap;html=1;aspect=fixed;" vertex="1" parent="1">
          <mxGeometry x="414" y="85" width="80" height="80" as="geometry" />
        </mxCell>
        <mxCell id="oi2uAlu7gPfmuYFmOc-m-12" value="Banking&lt;br&gt;Software" style="text;html=1;align=center;verticalAlign=middle;resizable=0;points=[];autosize=1;" vertex="1" parent="1">
          <mxGeometry x="420" y="165" width="60" height="30" as="geometry" />
        </mxCell>
        <mxCell id="oi2uAlu7gPfmuYFmOc-m-13" value="" style="endArrow=none;html=1;exitX=0;exitY=0;exitDx=0;exitDy=0;entryX=0;entryY=1;entryDx=0;entryDy=0;" edge="1" parent="1" source="oi2uAlu7gPfmuYFmOc-m-9" target="oi2uAlu7gPfmuYFmOc-m-11">
          <mxGeometry width="50" height="50" relative="1" as="geometry">
            <mxPoint x="250" y="180" as="sourcePoint" />
            <mxPoint x="300" y="130" as="targetPoint" />
          </mxGeometry>
        </mxCell>
        <mxCell id="oi2uAlu7gPfmuYFmOc-m-14" value="" style="whiteSpace=wrap;html=1;aspect=fixed;" vertex="1" parent="1">
          <mxGeometry x="30" y="245" width="80" height="80" as="geometry" />
        </mxCell>
        <mxCell id="oi2uAlu7gPfmuYFmOc-m-15" value="externes&lt;br&gt;Infosystem" style="text;html=1;align=center;verticalAlign=middle;resizable=0;points=[];autosize=1;" vertex="1" parent="1">
          <mxGeometry x="35" y="325" width="70" height="30" as="geometry" />
        </mxCell>
        <mxCell id="oi2uAlu7gPfmuYFmOc-m-16" value="" style="endArrow=none;html=1;entryX=0;entryY=0;entryDx=0;entryDy=0;exitX=1;exitY=1;exitDx=0;exitDy=0;" edge="1" parent="1" source="oi2uAlu7gPfmuYFmOc-m-14" target="oi2uAlu7gPfmuYFmOc-m-5">
          <mxGeometry width="50" height="50" relative="1" as="geometry">
            <mxPoint x="100" y="220" as="sourcePoint" />
            <mxPoint x="150" y="170" as="targetPoint" />
          </mxGeometry>
        </mxCell>
        <mxCell id="oi2uAlu7gPfmuYFmOc-m-17" value="kein -korrektes&lt;br&gt;Angebot ablehnen" style="ellipse;whiteSpace=wrap;html=1;" vertex="1" parent="1">
          <mxGeometry x="400" y="470" width="140" height="70" as="geometry" />
        </mxCell>
        <mxCell id="oi2uAlu7gPfmuYFmOc-m-18" value="&amp;lt;&amp;lt;extend&amp;gt;&amp;gt;" style="html=1;verticalAlign=bottom;endArrow=open;dashed=1;endSize=8;entryX=1;entryY=0.5;entryDx=0;entryDy=0;exitX=0;exitY=0.5;exitDx=0;exitDy=0;" edge="1" parent="1" source="oi2uAlu7gPfmuYFmOc-m-17" target="oi2uAlu7gPfmuYFmOc-m-5">
          <mxGeometry x="0.1034" y="-15" relative="1" as="geometry">
            <mxPoint x="420" y="440" as="sourcePoint" />
            <mxPoint x="340" y="440" as="targetPoint" />
            <mxPoint x="-1" as="offset" />
          </mxGeometry>
        </mxCell>
        <mxCell id="oi2uAlu7gPfmuYFmOc-m-19" value="&lt;b&gt;Condition:&lt;/b&gt;&lt;br&gt;{siehe Nr. 6-1 a)}&lt;br&gt;&lt;b&gt;Extension Point:&lt;/b&gt;&lt;br&gt;KeineKorrektheit" style="rounded=0;whiteSpace=wrap;html=1;align=left;" vertex="1" parent="1">
          <mxGeometry x="450" y="340" width="120" height="60" as="geometry" />
        </mxCell>
        <mxCell id="oi2uAlu7gPfmuYFmOc-m-20" value="" style="endArrow=none;html=1;entryX=0.25;entryY=1;entryDx=0;entryDy=0;" edge="1" parent="1" target="oi2uAlu7gPfmuYFmOc-m-19">
          <mxGeometry width="50" height="50" relative="1" as="geometry">
            <mxPoint x="380" y="480" as="sourcePoint" />
            <mxPoint x="470" y="410" as="targetPoint" />
          </mxGeometry>
        </mxCell>
        <mxCell id="oi2uAlu7gPfmuYFmOc-m-21" value="" style="endArrow=none;html=1;entryX=0;entryY=0.5;entryDx=0;entryDy=0;" edge="1" parent="1" source="oi2uAlu7gPfmuYFmOc-m-3" target="oi2uAlu7gPfmuYFmOc-m-5">
          <mxGeometry width="50" height="50" relative="1" as="geometry">
            <mxPoint x="60" y="570" as="sourcePoint" />
            <mxPoint x="110" y="520" as="targetPoint" />
          </mxGeometry>
        </mxCell>
      </root>
    </mxGraphModel>
  </diagram>
</mxfile>
